# xmcd CD database file
#
# Track frame offsets:
#	150
#	52722
#	81372
#	123522
#	143142
#	154147
#	166272
#	207147
#	256347
#
# Disc length: 4052 seconds
#
# Revision: 0
# Processed by: cddbd v1.5.1PL0 Copyright (c) Steve Scherf et al.
# Submitted via: CDex 1.51
#
DISCID=710fd209
DTITLE=Bill Perkins, Pete Candoli and Carl Fontana - Live At The Royal Palms Inn
DYEAR=1994
DGENRE=Jazz
TTITLE0=Broadway
TTITLE1=Pete's Blues
TTITLE2=Straight No Chaser
TTITLE3=Goodbye
TTITLE4=Over The Rainbow
TTITLE5=Days Of Wine And Roses
TTITLE6=Caravan
TTITLE7=Things Ain't What They Used To Be
TTITLE8=Sometimes I'm Happy
EXTD=YEAR: 1994
EXTT0=
EXTT1=
EXTT2=
EXTT3=
EXTT4=
EXTT5=
EXTT6=
EXTT7=
EXTT8=
PLAYORDER=
